<svg width="240" height="240" fill="none" xmlns="http://www.w3.org/2000/svg"><path d="M85.317 139.296a6.094 6.094 0 01-.717-1.964 6.9 6.9 0 00.717 1.964zM85.266 100.315zM86.199 140.381c.337.334.716.627 1.138.835l28.748 16.085-28.748-16.085a4.414 4.414 0 01-1.138-.835z" fill="#083042"/><path d="M120.513 177.648h-.211c-2.108 0-4.216-.501-6.112-1.546l-42.912-23.98c-2.53-1.42-4.09-4.052-4.09-6.893V96.433c0-2.09.38-4.095 1.265-5.85L34.9 71.91c-1.39 2.925-2.107 6.225-2.065 9.693v80.588c.042 4.721 2.613 9.066 6.786 11.406l70.776 39.605c3.119 1.754 6.618 2.59 10.074 2.59v-.042c.085-5.055.043-25.317.043-38.101z" fill="#083042"/><path d="M154.191 99.437l-.253-.376c-.21-.292-.421-.542-.631-.834.21.25.421.542.631.834.084.084.168.209.253.376zM85.647 99.48zM118.87 79.887c.212 0 .381-.042.593-.042-.212.042-.424.042-.593.042z" fill="#3DDB85"/><path d="M68.41 90.541c.928-1.922 2.362-3.51 4.3-4.68l40.383-23.603c3.752-2.215 8.389-2.256 12.225-.126l40.804 22.853a13.692 13.692 0 014.595 4.177l33.006-19.51a22.722 22.722 0 00-7.546-6.851l-67.403-37.725a20.283 20.283 0 00-20.149.209L41.981 64.22c-3.204 1.88-5.564 4.554-7.082 7.687l33.512 18.633z" fill="#3DDC84"/><path d="M117.188 80.225c.086-.043.172-.043.258-.085-.086.042-.172.042-.258.085zM85.396 99.942c.084-.167.168-.334.253-.459-.085.167-.169.292-.253.459l-.126.375.126-.375z" fill="#3DDB85"/><path d="M203.679 69.653l-33.006 19.51c1.264 1.838 2.023 4.01 2.065 6.224v46.457a12 12 0 01-5.985 10.528l-40.383 23.604c-1.813 1.045-3.836 1.63-5.86 1.671.043 12.742.043 33.005-.042 38.06v.041a20.608 20.608 0 0010.075-2.757l66.644-38.978c6.197-3.635 9.991-10.236 9.906-17.38V79.971c-.042-3.718-1.306-7.269-3.414-10.319z" fill="#4285F4"/><path d="M154.957 136.873c-.043.085-.043.17-.085.255.042-.085.085-.17.085-.255zM154.533 99.984c-.085-.21-.212-.377-.339-.587.127.21.254.42.339.587zM124.268 157.261l27.062-15.834c.169-.083.295-.209.464-.292-.169.083-.295.209-.464.292l-27.062 15.834zM154.616 137.833c-.085.21-.212.42-.297.63.085-.252.17-.462.297-.63zM152.629 140.464zM154.272 138.418z" fill="#4285F4"/><path d="M85.275 100.317a8.383 8.383 0 00-.632 2.548c-.043.334-.043.669-.043 1.045v32.712c0 .25 0 .459.043.71.084.71.337 1.378.716 1.963.253.418.548.752.843 1.086.338.335.717.627 1.138.836l28.749 16.084c1.264.711 2.698 1.045 4.089 1.045h.295a7.848 7.848 0 003.794-1.128l27.062-15.834c.169-.083.295-.209.464-.292.295-.209.59-.418.843-.669a9.822 9.822 0 001.096-1.17c.21-.292.421-.584.59-.877.126-.209.211-.418.295-.627.084-.208.211-.459.295-.71.042-.083.042-.167.084-.25a8.21 8.21 0 00.38-2.507v-31.124c0-.585-.085-1.128-.211-1.671-.084-.376-.211-.711-.337-1.045l-.253-.501c-.085-.209-.211-.376-.337-.585a88.47 88.47 0 01-.253-.376c-.211-.293-.422-.543-.633-.836a8.54 8.54 0 00-2.445-1.963L123.55 80.849c-.464-.251-.97-.502-1.475-.669a8.924 8.924 0 00-2.108-.376h-.548c-.211 0-.379 0-.59.042-.464.042-.97.125-1.433.25-.085.042-.169.042-.253.084-.633.167-1.223.46-1.813.794L88.268 96.808a6.933 6.933 0 00-2.024 1.796c-.21.292-.421.585-.59.877-.084.167-.168.293-.253.46l-.126.376z" fill="#D6F0FF"/><path d="M120.467 158.345h-.295c-1.391 0-2.824-.334-4.089-1.044l-28.748-16.084c-.422-.251-.801-.502-1.138-.836a5.037 5.037 0 01-.843-1.086 6.086 6.086 0 01-.717-1.964c-.042-.25-.042-.459-.042-.71v-32.712c0-.334 0-.71.042-1.044a8.71 8.71 0 01.632-2.549l-7.756-4.72-9.105-5.056c-.843 1.755-1.265 3.76-1.265 5.85v48.796a8.104 8.104 0 004.09 6.893l42.869 24.022c1.897 1.044 4.005 1.587 6.112 1.546h.211c0-6.225-.042-10.654-.042-10.654l.084-8.648z" fill="#083042"/><path d="M120.467 158.345h-.295c-1.391 0-2.824-.334-4.089-1.044l-28.748-16.084c-.422-.251-.801-.502-1.138-.836a5.037 5.037 0 01-.843-1.086 6.086 6.086 0 01-.717-1.964c-.042-.25-.042-.459-.042-.71v-32.712c0-.334 0-.71.042-1.044a8.71 8.71 0 01.632-2.549l-7.756-4.72-9.105-5.056c-.843 1.755-1.265 3.76-1.265 5.85v48.796a8.104 8.104 0 004.09 6.893l42.869 24.022c1.897 1.044 4.005 1.587 6.112 1.546h.211c0-6.225-.042-10.654-.042-10.654l.084-8.648z" fill="#041619"/><path d="M166.076 84.985l-40.804-22.853c-3.794-2.13-8.431-2.088-12.224.126L72.665 85.862c-1.94 1.128-3.372 2.757-4.3 4.68l9.148 5.054 7.756 4.721.126-.376c.085-.167.169-.334.253-.46.169-.292.38-.584.59-.877.548-.71 1.223-1.295 2.024-1.796l27.062-15.834a9.914 9.914 0 011.813-.794c.084-.041.168-.041.252-.083a7.9 7.9 0 011.434-.25c.21 0 .379-.043.59-.043h.548a9.318 9.318 0 012.107.376 6.681 6.681 0 011.476.669l27.357 15.332c.928.502 1.729 1.17 2.445 1.964.211.25.422.543.632.835l.253.376 6.998-4.637 9.484-5.64c-1.222-1.63-2.782-3.092-4.637-4.094z" fill="#3DDB85"/><path d="M166.076 84.985l-40.804-22.853c-3.794-2.13-8.431-2.088-12.224.126L72.665 85.862c-1.94 1.128-3.372 2.757-4.3 4.68l9.148 5.054 7.756 4.721.126-.376c.085-.167.169-.334.253-.46.169-.292.38-.584.59-.877.548-.71 1.223-1.295 2.024-1.796l27.062-15.834a9.914 9.914 0 011.813-.794c.084-.041.168-.041.252-.083a7.9 7.9 0 011.434-.25c.21 0 .379-.043.59-.043h.548a9.318 9.318 0 012.107.376 6.681 6.681 0 011.476.669l27.357 15.332c.928.502 1.729 1.17 2.445 1.964.211.25.422.543.632.835l.253.376 6.998-4.637 9.484-5.64c-1.222-1.63-2.782-3.092-4.637-4.094z" fill="#37BF6E"/><path d="M154.191 99.438c.127.209.211.376.337.585l.253.501c.127.335.253.711.338 1.045.126.543.21 1.086.21 1.671v31.124a8.21 8.21 0 01-.379 2.507c-.042.083-.042.167-.084.25-.085.251-.169.46-.295.711-.085.209-.211.417-.295.626-.169.293-.38.585-.591.878a9.52 9.52 0 01-1.096 1.169c-.253.251-.548.46-.843.669-.168.083-.295.209-.463.292L124.22 157.3a8.874 8.874 0 01-3.794 1.128v8.648s0 4.428.043 10.653a11.854 11.854 0 005.859-1.671l40.383-23.604c3.751-2.214 6.028-6.225 5.985-10.528V95.469c-.042-2.256-.8-4.386-2.065-6.225l-9.485 5.64-6.955 4.554z" fill="#4285F4"/><path d="M154.191 99.438c.127.209.211.376.337.585l.253.501c.127.335.253.711.338 1.045.126.543.21 1.086.21 1.671v31.124a8.21 8.21 0 01-.379 2.507c-.042.083-.042.167-.084.25-.085.251-.169.46-.295.711-.085.209-.211.417-.295.626-.169.293-.38.585-.591.878a9.52 9.52 0 01-1.096 1.169c-.253.251-.548.46-.843.669-.168.083-.295.209-.463.292L124.22 157.3a8.874 8.874 0 01-3.794 1.128v8.648s0 4.428.043 10.653a11.854 11.854 0 005.859-1.671l40.383-23.604c3.751-2.214 6.028-6.225 5.985-10.528V95.469c-.042-2.256-.8-4.386-2.065-6.225l-9.485 5.64-6.955 4.554z" fill="#3870B2"/><path d="M117.183 80.223c-.633.167-1.223.46-1.813.794L88.308 96.85l27.062-15.833a7.008 7.008 0 011.813-.794z" fill="#D6F0FF"/><path opacity=".1" d="M117.183 80.223c-.633.167-1.223.46-1.813.794L88.308 96.85l27.062-15.833a7.008 7.008 0 011.813-.794z" fill="#000"/><path d="M153.308 98.227a8.55 8.55 0 00-2.444-1.964l-27.358-15.332 27.358 15.332a8.55 8.55 0 012.444 1.964z" fill="#D6F0FF"/><path opacity=".1" d="M153.308 98.227a8.55 8.55 0 00-2.444-1.964l-27.358-15.332 27.358 15.332a8.55 8.55 0 012.444 1.964z" fill="#000"/><path d="M117.43 80.137z" fill="#D6F0FF"/><path opacity=".1" d="M117.43 80.137z" fill="#000"/><path d="M119.966 79.887z" fill="#D6F0FF"/><path opacity=".1" d="M119.966 79.887z" fill="#000"/><path d="M154.865 137.121z" fill="#D6F0FF"/><path opacity=".1" d="M154.865 137.121z" fill="#000"/><path d="M154.78 100.485c.126.333.252.709.336 1.042-.084-.333-.21-.667-.336-1.042z" fill="#D6F0FF"/><path opacity=".1" d="M154.78 100.485c.126.333.252.709.336 1.042-.084-.333-.21-.667-.336-1.042z" fill="#000"/><path d="M154.947 136.871a8.21 8.21 0 00.379-2.507V103.24v31.124a8.21 8.21 0 01-.379 2.507z" fill="#D6F0FF"/><path opacity=".1" d="M154.947 136.871a8.21 8.21 0 00.379-2.507V103.24v31.124a8.21 8.21 0 01-.379 2.507z" fill="#000"/></svg>