<svg xmlns="http://www.w3.org/2000/svg" version="1.1" xmlns:xlink="http://www.w3.org/1999/xlink" xmlns:svgjs="http://svgjs.com/svgjs" width="512" height="512"><svg xmlns="http://www.w3.org/2000/svg" viewBox="0 0 512 512"><g id="SvgjsG1000"><path d="M411.44,100.67A219.18,219.18,0,0,0,255.93,36.25h-1.79a233.72,233.72,0,0,1,21.36,16c2.2,1.76,4.33,3.57,6.41,5.52,22.35,21,41.46,44.66,56.32,71.87a292.29,292.29,0,0,1,13.7,30.06,255.9,255.9,0,0,1,9.82,31.43c12.46,54.36,9.44,109.12-9.85,161.47a293.35,293.35,0,0,1-13.71,30.06,271.33,271.33,0,0,1-17.46,28.17,234.63,234.63,0,0,1-21,25.95c-3.73,4.14-7.75,8.06-11.7,12-2,1.95-4.15,3.8-6.22,5.71s-4.17,3.73-6.37,5.48a237.61,237.61,0,0,1-21.55,16.1h2c121.47,0,219.93-98.49,219.93-219.93A219.18,219.18,0,0,0,411.44,100.67Z" fill="#030712"></path><path d="M359.07,287.48c-.06.48-.13.92-.19,1.4-.57,5.42-1.75,10.77-2.61,16.16-.58,2.68-1.15,5.32-1.82,8s-1.24,5.29-2,7.9a257.46,257.46,0,0,1-10.68,30.79c-2.23,4.94-4.36,9.92-7,14.67-2.42,4.84-5.13,9.46-7.87,14.12-5.71,9.11-11.57,18.13-18.52,26.29A232,232,0,0,1,286.53,430a208.22,208.22,0,0,1-24.74,19.57,193.47,193.47,0,0,1-27,15.61,207,207,0,0,1-27.51,10.94h-150A21.35,21.35,0,0,1,36,454.76V57.6A21.35,21.35,0,0,1,57.35,36.25H206.87a204.45,204.45,0,0,1,27.89,11,197.44,197.44,0,0,1,27,15.58,240.24,240.24,0,0,1,65.12,69c2.71,4.65,5.45,9.31,7.84,14.12,2.61,4.75,4.78,9.72,7,14.66a265.44,265.44,0,0,1,10.68,30.79c.8,2.62,1.47,5.26,2,7.91s1.28,5.32,1.82,8c.86,5.38,2,10.74,2.61,16.19.06.44.13.89.19,1.34a144,144,0,0,0-37.48-69.74,137.16,137.16,0,0,0-98.52-41.85H159.7a21.35,21.35,0,0,0-21.35,21.35V377.75A21.35,21.35,0,0,0,159.7,399.1h63.37C289.56,399.1,345.14,351.35,359.07,287.48Z" fill="#3b82f6"></path><path d="M367.42,287.48c.32-1.47.64-2.93.93-4.43.89-8.93,1.14-17.91,1.24-26.87A277.5,277.5,0,0,1,367.42,287.48Zm.93-58.17c-.29-1.5-.61-3-.93-4.46a277.38,277.38,0,0,1,2.17,31.33C369.49,247.22,369.24,238.23,368.35,229.31Z" fill="#fff"></path></g></svg><style>@media (prefers-color-scheme: light) { :root { filter: none; } }
</style></svg>